<svg width="512" height="512" viewBox="0 0 512 512" fill="none" xmlns="http://www.w3.org/2000/svg">
<rect width="512" height="512" fill="white"/>
<path d="M299.547 271.202H307.787H310.946H326.464L366.977 230.689H314.517L274.004 271.202H292.132H299.547Z" fill="#606060"/>
<path d="M256.15 120L230.057 146.23L314.515 230.689H366.976L256.15 120Z" fill="#4F4F4F"/>
<path d="M241.591 187.018L215.36 160.787L145.459 230.689H197.919L241.591 187.018Z" fill="#606060"/>
<path d="M220.442 271.202H228.407H238.432L197.919 230.689H145.459L215.223 300.453L218.931 279.029L220.442 271.202Z" fill="#4F4F4F"/>
<path d="M255.198 200.634L226.066 229.766L255.198 258.898L284.33 229.766L255.198 200.634Z" fill="#CFB16D"/>
<path d="M183.089 286.171C175.673 282.6 166.747 280.677 156.584 280.677H112.638L93 391.778H136.946C148.619 391.778 159.194 389.444 168.807 384.637C178.42 379.83 186.385 373.239 192.565 364.861C198.745 356.484 202.865 346.871 204.787 336.159C205.474 332.451 205.886 328.606 205.886 324.623C205.886 315.834 203.964 308.144 200.118 301.414C196.273 294.96 190.505 289.741 183.089 286.171ZM173.476 336.159C171.828 345.223 167.983 352.227 161.94 357.171C155.898 362.115 148.482 364.587 139.418 364.587H128.706L139.006 307.457H149.58C157.408 307.457 163.451 309.38 167.708 313.088C171.965 316.933 174.163 322.289 174.163 329.293C174.163 331.902 173.888 334.099 173.476 336.159Z" fill="#4F4F4F"/>
<path d="M418.198 280.815H383.179L359.832 311.302L344.177 280.815H316.848H309.295H307.784L308.883 282.737L310.943 286.72L335.525 334.923L289.794 391.366L289.656 391.778H324.538L348.709 360.467L364.502 391.778H400.894L372.879 336.846L418.198 280.815Z" fill="#4F4F4F"/>
<path d="M289.383 391.778H289.657L289.795 391.366L289.383 391.778Z" fill="black"/>
<path d="M297.075 280.815H277.162H248.048H228.41L223.466 308.693L208.771 391.778H277.025H279.909L280.733 387.246L284.166 367.196H244.066L247.636 347.008H283.068L287.325 323.525H274.004H251.893L255.052 305.122H272.356H295.29L296.251 299.766L298.861 284.385L299.547 280.815H297.075Z" fill="#4F4F4F"/>
</svg>
